<svg width="300" height="300" viewBox="0 0 300 300" fill="none" xmlns="http://www.w3.org/2000/svg">
<path d="M149.562 136.818C138.101 114.528 106.888 72.9871 77.8681 52.4997C50.0683 32.8738 39.463 36.2743 32.5105 39.4159C24.4632 43.0522 23 55.4067 23 62.6756C23 69.9443 26.9849 122.269 29.5842 131.004C38.1724 159.863 68.7455 169.614 96.9012 166.485C98.3405 166.271 99.8002 166.074 101.278 165.891C99.8283 166.123 98.3679 166.321 96.9012 166.485C55.6393 172.595 18.9949 187.632 67.0565 241.138C119.924 295.876 139.511 229.401 149.562 195.697C159.614 229.401 171.191 293.479 231.121 241.138C276.125 195.697 243.486 172.598 202.224 166.486C200.757 166.323 199.297 166.125 197.847 165.893C199.325 166.075 200.784 166.273 202.224 166.486C230.38 169.616 260.952 159.864 269.541 131.006C272.14 122.271 276.125 69.9462 276.125 62.6774C276.125 55.4086 274.662 43.054 266.614 39.4177C259.662 36.2761 249.057 32.8756 221.257 52.5015C192.236 72.9889 161.024 114.528 149.562 136.818Z" fill="black"/>
</svg>
